<svg xmlns="http://www.w3.org/2000/svg" viewBox="0 0 436.71 119.54"><defs><style>.cls-1{fill:#2dbebf;}.cls-2{fill:#464a57;}.cls-3{fill:#fff;}.cls-4{fill:#2c587f;}</style></defs><title>Asset 2</title><g id="Layer_2" data-name="Layer 2"><g id="Layer_1-2" data-name="Layer 1"><rect class="cls-1" width="212" height="84.84" rx="10.59" ry="10.59"/><path class="cls-2" d="M270.11,23.05l-2.8,23.33q-1.29,10.56-5.52,15-4.67,5-14.79,5h-.26q-10.35,0-15-5.44-4-4.65-5.09-15.39L224,20.46h12.81l2.37,25.1c.35,3.62.89,6.11,1.64,7.46q1.63,3,5.78,3h.47q3.79,0,5.57-2.45c1-1.44,1.71-3.83,2.11-7.16l1.77-15.23H245.75V20.46H268C269.61,20.46,270.31,21.32,270.11,23.05Z"/><path class="cls-2" d="M319.62,43q0,11.68-3.49,16.91-3.79,5.69-12.85,5.69H278.61V54.92h24.06a2.6,2.6,0,0,0,2.63-1.6q1.17-2.67,1.17-10.31t-1.08-10.78a2.46,2.46,0,0,0-2.63-1.77H290.9v6.43c0,.89.33,1.34,1,1.34h5.31V47H283.57q-5.22,0-5.22-5.74V20.46h25.27q9.15,0,12.68,5.43Q319.63,30.85,319.62,43Z"/><path class="cls-2" d="M382.85,20.46l-3.37,29.06a17.49,17.49,0,0,1-6.79,12.6q-5.88,4.49-15.46,4.48H351q-19.94,0-21.83-17l-3.27-29.15H338.6l1.85,17.68h2.33a5.82,5.82,0,0,0,3.88-1.08A4.75,4.75,0,0,0,348,33.35l.18-12.89h12.12l-.26,13q-.13,6.26-3.54,9.58-3.15,3-8.84,3-5.13,0-6.43-.51l.52,4q.48,3.49,2.44,4.77c1.3.85,3.73,1.27,7.26,1.27h5.57q5,0,7.16-1.33,2.28-1.42,2.76-5.31l3.23-28.46Z"/><path class="cls-2" d="M436.71,65.61H413.47V54.92h10.69V36.37q0-6-6.25-6h-1.25q-5.79,0-7.25,6.51L403,65.61H390.26l5.48-24-7.16-21.13h12.81l3.88,11h.18a18.8,18.8,0,0,1,2-5.39,11.67,11.67,0,0,1,3.71-4.4A13.43,13.43,0,0,1,418.25,20h4Q436.71,20,436.71,35Z"/><path class="cls-3" d="M58.42,25.37l-3.58,23.2q-2,12.7-13.41,12.7a14.93,14.93,0,0,1-3.52-.42V52.79h1c3.43,0,5.39-1.6,5.89-4.82l2.31-15.26H20.7v-8.8H57.39C58.22,23.91,58.56,24.4,58.42,25.37ZM32.48,75.61H22.16V38.11H32.48Z"/><path class="cls-3" d="M75.91,45.24H65.62V23.91H75.91Z"/><path class="cls-3" d="M111.32,26.11,107.6,47.76q-2.34,13.73-14.94,13.73a15.18,15.18,0,0,1-3.51-.43V52.79h1.66q5.79,0,6.64-5.11l2.45-15H83c-1.06,0-1.59-.67-1.59-2V12H91.7V23.91h18a1.51,1.51,0,0,1,1.71,1.71A4,4,0,0,1,111.32,26.11Z"/><path class="cls-3" d="M154.54,25.37,151,48.57q-1.95,12.7-13.41,12.7a14.91,14.91,0,0,1-3.51-.42V52.79h1c3.43,0,5.39-1.6,5.89-4.82l2.3-15.26H116.82v-8.8h36.69C154.34,23.91,154.68,24.4,154.54,25.37ZM128.6,75.61H118.28V38.11H128.6Z"/><path class="cls-3" d="M191.83,61.06H160.29v-8.8h15.82c.54,0,.91-.51,1.1-1.52a50.8,50.8,0,0,0,.5-8.27c0-4.19-.22-7-.64-8.3-.31-1-.82-1.46-1.53-1.46H161.21v-8.8H179q5.28,0,7.34,3.05,2.39,3.59,2.38,12.95,0,8.88-1.95,12.35h5.11Z"/><path class="cls-4" d="M236.87,89.34,201.15,73.55a1,1,0,0,0-1.33,1.17l10.87,37.51a1,1,0,0,0,1.73.29L220,101.9l15.13,17.31a1,1,0,0,0,1,.29,1,1,0,0,0,.37-.2l3.92-3.43a1,1,0,0,0,.33-.67,1,1,0,0,0-.24-.7L225.39,97.19l11.54-6.1a1,1,0,0,0,.52-.9A1,1,0,0,0,236.87,89.34Z"/><path class="cls-4" d="M198.92,70.86l-2.57-2.94a1,1,0,0,0-1.38-.09,1,1,0,0,0-.09,1.38l2.57,2.94a1,1,0,0,0,1,.29.84.84,0,0,0,.37-.2A1,1,0,0,0,198.92,70.86Z"/><path class="cls-4" d="M195.93,76.27,192,76A1,1,0,1,0,191.9,78l3.9.27a1.19,1.19,0,0,0,.33,0,1,1,0,0,0,.7-.87A1,1,0,0,0,195.93,76.27Z"/><path class="cls-4" d="M204.5,65.1a1,1,0,0,0-1,.91l-.26,3.9a1,1,0,0,0,.91,1,1.27,1.27,0,0,0,.34,0,1,1,0,0,0,.7-.87l.26-3.9A1,1,0,0,0,204.5,65.1Z"/></g></g></svg>